<?xml version="1.0" standalone="no"?>
<!DOCTYPE svg PUBLIC "-//W3C//DTD SVG 20010904//EN"
 "http://www.w3.org/TR/2001/REC-SVG-20010904/DTD/svg10.dtd">
<svg version="1.0" xmlns="http://www.w3.org/2000/svg"
 width="1280.000000pt" height="637.000000pt" viewBox="0 0 1280.000000 637.000000"
 preserveAspectRatio="xMidYMid meet">
<metadata>
Created by potrace 1.15, written by Peter Selinger 2001-2017
</metadata>
<g transform="translate(0.000000,637.000000) scale(0.100000,-0.100000)"
fill="#11CEAE" stroke="none" fill-opacity="1.0">
<path d="M4275 6004 c-768 -31 -1259 -96 -1623 -215 -72 -24 -133 -57 -282
-149 -447 -280 -745 -499 -960 -704 -58 -56 -127 -120 -155 -142 -127 -103
-281 -188 -322 -178 -62 16 -331 -200 -358 -287 -5 -15 -10 -18 -15 -10 -9 16
-94 -68 -120 -120 -45 -88 -63 -236 -40 -334 6 -29 4 -75 -10 -168 l-20 -128
28 -25 c22 -21 23 -23 5 -15 -12 6 -24 11 -27 11 -10 0 -44 -125 -54 -200 -46
-325 6 -653 158 -990 32 -71 40 -103 50 -195 23 -229 77 -440 167 -653 4 -9
-26 -12 -129 -12 l-134 0 -31 -32 c-41 -45 -45 -62 -22 -92 35 -44 107 -64
514 -141 105 -20 242 -49 305 -65 324 -81 1949 -358 4310 -734 691 -110 531
-99 1770 -121 963 -18 1465 -30 1875 -47 396 -17 1013 -17 1175 0 400 41 719
87 1110 158 387 71 570 113 618 140 96 56 145 121 123 163 -28 52 -138 82
-391 106 -91 9 -166 18 -167 19 -2 1 26 24 62 50 35 26 98 83 139 127 l74 80
74 2 c109 3 157 44 145 124 -6 34 4 43 52 43 72 0 120 102 161 350 57 339 65
467 51 805 -8 175 -17 293 -27 335 -21 83 -78 206 -138 295 -25 38 -51 87 -57
110 -18 73 -40 123 -78 182 -43 66 -129 165 -181 210 -251 217 -1083 528
-2190 818 -118 31 -221 58 -227 60 -9 3 -4 19 17 52 63 99 60 167 -8 223 -73
60 -266 100 -483 100 l-89 0 -137 108 c-419 329 -682 508 -924 628 -147 74
-355 154 -536 208 -607 181 -1215 244 -2418 250 -302 2 -586 2 -630 0z m5011
-1482 c-5 -4 -86 58 -86 65 0 2 20 -10 45 -28 25 -18 43 -34 41 -37z m-1998
-1129 c-10 -2 -28 -2 -40 0 -13 2 -5 4 17 4 22 1 32 -1 23 -4z m3650 -40 c-10
-2 -26 -2 -35 0 -10 3 -2 5 17 5 19 0 27 -2 18 -5z m-8518 -1684 c340 -55
1174 -200 1179 -205 3 -3 -170 -2 -384 1 -215 3 -609 8 -877 11 l-488 6 26 42
c26 41 49 89 78 159 l15 38 103 -7 c57 -3 213 -24 348 -45z m7875 -669 c16
-16 26 -30 24 -30 -3 0 -93 9 -200 20 -107 11 -212 20 -234 20 -30 0 -36 3
-25 10 8 5 102 10 211 10 l195 0 29 -30z"/>
</g>
</svg>
